<mxfile host="Electron" agent="Mozilla/5.0 (Windows NT 10.0; Win64; x64) AppleWebKit/537.36 (KHTML, like Gecko) draw.io/26.2.2 Chrome/134.0.6998.178 Electron/35.1.2 Safari/537.36" version="26.2.2" pages="2">
  <diagram name="Page-1" id="ESQQdq1TttOkJcOgB4Id">
    <mxGraphModel dx="1019" dy="803" grid="1" gridSize="10" guides="1" tooltips="1" connect="1" arrows="1" fold="1" page="1" pageScale="1" pageWidth="850" pageHeight="1100" math="0" shadow="0">
      <root>
        <mxCell id="0" />
        <mxCell id="1" parent="0" />
        <mxCell id="dF56cebNLmrT7NUHNz8Q-4" value="SensorProcessorWPF" style="swimlane;whiteSpace=wrap;html=1;startSize=23;" parent="1" vertex="1">
          <mxGeometry x="240" y="330" width="320" height="260" as="geometry" />
        </mxCell>
        <mxCell id="dF56cebNLmrT7NUHNz8Q-8" value="Communication&lt;div&gt;Layer&lt;/div&gt;" style="rounded=0;whiteSpace=wrap;html=1;" parent="dF56cebNLmrT7NUHNz8Q-4" vertex="1">
          <mxGeometry x="210" y="30" width="90" height="210" as="geometry" />
        </mxCell>
        <mxCell id="vH57DDxU4aNSEHnl1czY-7" value="Presentation&lt;div&gt;Layer&lt;/div&gt;" style="rounded=0;whiteSpace=wrap;html=1;" parent="dF56cebNLmrT7NUHNz8Q-4" vertex="1">
          <mxGeometry x="40" y="100" width="120" height="60" as="geometry" />
        </mxCell>
        <mxCell id="dF56cebNLmrT7NUHNz8Q-5" value="SensorProcessorService" style="swimlane;whiteSpace=wrap;html=1;startSize=23;" parent="1" vertex="1">
          <mxGeometry x="600" y="330" width="550" height="260" as="geometry" />
        </mxCell>
        <mxCell id="dF56cebNLmrT7NUHNz8Q-10" value="Communication&lt;div&gt;Layer&lt;/div&gt;" style="rounded=0;whiteSpace=wrap;html=1;" parent="dF56cebNLmrT7NUHNz8Q-5" vertex="1">
          <mxGeometry x="20" y="30" width="90" height="210" as="geometry" />
        </mxCell>
        <mxCell id="dF56cebNLmrT7NUHNz8Q-11" value="Plugin&amp;nbsp;&lt;div&gt;Manager&lt;/div&gt;" style="rounded=0;whiteSpace=wrap;html=1;" parent="dF56cebNLmrT7NUHNz8Q-5" vertex="1">
          <mxGeometry x="130" y="180" width="130" height="50" as="geometry" />
        </mxCell>
        <mxCell id="dF56cebNLmrT7NUHNz8Q-12" value="Processing&lt;div&gt;Pipeline&lt;/div&gt;" style="rounded=0;whiteSpace=wrap;html=1;" parent="dF56cebNLmrT7NUHNz8Q-5" vertex="1">
          <mxGeometry x="170" y="105" width="130" height="50" as="geometry" />
        </mxCell>
        <mxCell id="dF56cebNLmrT7NUHNz8Q-16" value="Logging&lt;div&gt;Service&lt;/div&gt;" style="rounded=0;whiteSpace=wrap;html=1;" parent="dF56cebNLmrT7NUHNz8Q-5" vertex="1">
          <mxGeometry x="280" y="180" width="130" height="50" as="geometry" />
        </mxCell>
        <mxCell id="dF56cebNLmrT7NUHNz8Q-23" value="IO Layer" style="rounded=0;whiteSpace=wrap;html=1;" parent="dF56cebNLmrT7NUHNz8Q-5" vertex="1">
          <mxGeometry x="440" y="30" width="90" height="210" as="geometry" />
        </mxCell>
        <mxCell id="dF56cebNLmrT7NUHNz8Q-24" value="" style="endArrow=classic;startArrow=classic;html=1;rounded=0;exitX=1;exitY=0.5;exitDx=0;exitDy=0;entryX=0.001;entryY=0.479;entryDx=0;entryDy=0;entryPerimeter=0;" parent="dF56cebNLmrT7NUHNz8Q-5" source="dF56cebNLmrT7NUHNz8Q-12" target="dF56cebNLmrT7NUHNz8Q-23" edge="1">
          <mxGeometry width="50" height="50" relative="1" as="geometry">
            <mxPoint x="320" y="110" as="sourcePoint" />
            <mxPoint x="370" y="60" as="targetPoint" />
          </mxGeometry>
        </mxCell>
        <mxCell id="dF56cebNLmrT7NUHNz8Q-26" value="" style="endArrow=classic;startArrow=classic;html=1;rounded=0;entryX=0;entryY=0.5;entryDx=0;entryDy=0;" parent="dF56cebNLmrT7NUHNz8Q-5" source="dF56cebNLmrT7NUHNz8Q-10" target="dF56cebNLmrT7NUHNz8Q-12" edge="1">
          <mxGeometry width="50" height="50" relative="1" as="geometry">
            <mxPoint x="270" y="140" as="sourcePoint" />
            <mxPoint x="450" y="141" as="targetPoint" />
          </mxGeometry>
        </mxCell>
        <mxCell id="dF56cebNLmrT7NUHNz8Q-27" value="" style="endArrow=classic;startArrow=classic;html=1;rounded=0;entryX=0.5;entryY=1;entryDx=0;entryDy=0;exitX=0.5;exitY=0;exitDx=0;exitDy=0;" parent="dF56cebNLmrT7NUHNz8Q-5" source="dF56cebNLmrT7NUHNz8Q-11" target="dF56cebNLmrT7NUHNz8Q-12" edge="1">
          <mxGeometry width="50" height="50" relative="1" as="geometry">
            <mxPoint x="120" y="143" as="sourcePoint" />
            <mxPoint x="190" y="140" as="targetPoint" />
          </mxGeometry>
        </mxCell>
        <mxCell id="dF56cebNLmrT7NUHNz8Q-28" value="Diagnostic&lt;div&gt;Service&lt;/div&gt;" style="rounded=0;whiteSpace=wrap;html=1;" parent="dF56cebNLmrT7NUHNz8Q-5" vertex="1">
          <mxGeometry x="190" y="30" width="130" height="60" as="geometry" />
        </mxCell>
        <mxCell id="dF56cebNLmrT7NUHNz8Q-29" value="" style="endArrow=classic;startArrow=classic;html=1;rounded=0;exitX=1;exitY=0.5;exitDx=0;exitDy=0;entryX=-0.019;entryY=0.156;entryDx=0;entryDy=0;entryPerimeter=0;" parent="dF56cebNLmrT7NUHNz8Q-5" source="dF56cebNLmrT7NUHNz8Q-28" target="dF56cebNLmrT7NUHNz8Q-23" edge="1">
          <mxGeometry width="50" height="50" relative="1" as="geometry">
            <mxPoint x="310" y="140" as="sourcePoint" />
            <mxPoint x="450" y="141" as="targetPoint" />
          </mxGeometry>
        </mxCell>
        <mxCell id="dF56cebNLmrT7NUHNz8Q-30" value="" style="endArrow=classic;startArrow=classic;html=1;rounded=0;exitX=1.019;exitY=0.168;exitDx=0;exitDy=0;entryX=0;entryY=0.5;entryDx=0;entryDy=0;exitPerimeter=0;" parent="dF56cebNLmrT7NUHNz8Q-5" source="dF56cebNLmrT7NUHNz8Q-10" target="dF56cebNLmrT7NUHNz8Q-28" edge="1">
          <mxGeometry width="50" height="50" relative="1" as="geometry">
            <mxPoint x="330" y="70" as="sourcePoint" />
            <mxPoint x="448" y="73" as="targetPoint" />
          </mxGeometry>
        </mxCell>
        <mxCell id="h2vkKSdlR_5L6GXh10Rz-41" value="" style="endArrow=classic;startArrow=classic;html=1;rounded=0;entryX=0.562;entryY=0.98;entryDx=0;entryDy=0;exitX=0.5;exitY=0;exitDx=0;exitDy=0;entryPerimeter=0;" parent="dF56cebNLmrT7NUHNz8Q-5" source="dF56cebNLmrT7NUHNz8Q-16" target="dF56cebNLmrT7NUHNz8Q-12" edge="1">
          <mxGeometry width="50" height="50" relative="1" as="geometry">
            <mxPoint x="205" y="190" as="sourcePoint" />
            <mxPoint x="245" y="165" as="targetPoint" />
          </mxGeometry>
        </mxCell>
        <mxCell id="dF56cebNLmrT7NUHNz8Q-13" value="Processing&amp;nbsp;&lt;div&gt;Plugins&lt;/div&gt;" style="rounded=0;whiteSpace=wrap;html=1;" parent="1" vertex="1">
          <mxGeometry x="730" y="580" width="130" height="50" as="geometry" />
        </mxCell>
        <mxCell id="dF56cebNLmrT7NUHNz8Q-19" style="edgeStyle=orthogonalEdgeStyle;rounded=0;orthogonalLoop=1;jettySize=auto;html=1;entryX=0.5;entryY=1;entryDx=0;entryDy=0;" parent="1" source="dF56cebNLmrT7NUHNz8Q-17" target="dF56cebNLmrT7NUHNz8Q-16" edge="1">
          <mxGeometry relative="1" as="geometry" />
        </mxCell>
        <mxCell id="dF56cebNLmrT7NUHNz8Q-17" value="Storage" style="shape=cylinder3;whiteSpace=wrap;html=1;boundedLbl=1;backgroundOutline=1;size=15;" parent="1" vertex="1">
          <mxGeometry x="910" y="610" width="70" height="60" as="geometry" />
        </mxCell>
        <mxCell id="dF56cebNLmrT7NUHNz8Q-18" style="edgeStyle=orthogonalEdgeStyle;rounded=0;orthogonalLoop=1;jettySize=auto;html=1;entryX=0.5;entryY=0;entryDx=0;entryDy=0;entryPerimeter=0;" parent="1" source="dF56cebNLmrT7NUHNz8Q-16" target="dF56cebNLmrT7NUHNz8Q-17" edge="1">
          <mxGeometry relative="1" as="geometry" />
        </mxCell>
        <mxCell id="dF56cebNLmrT7NUHNz8Q-22" value="Actor" style="shape=umlActor;verticalLabelPosition=bottom;verticalAlign=top;html=1;outlineConnect=0;" parent="1" vertex="1">
          <mxGeometry x="1210" y="360" width="30" height="60" as="geometry" />
        </mxCell>
        <mxCell id="h2vkKSdlR_5L6GXh10Rz-1" value="&lt;h1 style=&quot;margin-top: 0px;&quot;&gt;Prototype&lt;/h1&gt;&lt;div&gt;- Communication Layer (ZeroMq) Abstraction. For quick prototyping or switching of messaging protocol.&lt;/div&gt;&lt;div&gt;- Simple processing pipeline implementation. Addition of 2 sensor readings coming in at different rates. Start/Stop experiment commands.&lt;/div&gt;&lt;div&gt;- I/O Layer (hardware) abstraction. Hide away hardware driver details.&lt;/div&gt;&lt;div&gt;- Basic diagnostic service. Report liveness to clients, check liveness of clients, report liveness of IO devices.&lt;/div&gt;&lt;div&gt;- Basic Logging service. Saving experiments to persistent storage.&lt;/div&gt;" style="text;html=1;whiteSpace=wrap;overflow=hidden;rounded=0;" parent="1" vertex="1">
          <mxGeometry x="510" y="660" width="300" height="210" as="geometry" />
        </mxCell>
        <mxCell id="h2vkKSdlR_5L6GXh10Rz-3" value="Communication Layer&lt;div&gt;SensorProcessorService&lt;/div&gt;" style="swimlane;whiteSpace=wrap;html=1;startSize=30;" parent="1" vertex="1">
          <mxGeometry x="510" y="940" width="270" height="260" as="geometry" />
        </mxCell>
        <mxCell id="h2vkKSdlR_5L6GXh10Rz-31" style="edgeStyle=orthogonalEdgeStyle;rounded=0;orthogonalLoop=1;jettySize=auto;html=1;entryX=1;entryY=0.5;entryDx=0;entryDy=0;" parent="h2vkKSdlR_5L6GXh10Rz-3" source="h2vkKSdlR_5L6GXh10Rz-6" target="h2vkKSdlR_5L6GXh10Rz-8" edge="1">
          <mxGeometry relative="1" as="geometry" />
        </mxCell>
        <mxCell id="h2vkKSdlR_5L6GXh10Rz-6" value="Experiment API" style="rounded=0;whiteSpace=wrap;html=1;" parent="h2vkKSdlR_5L6GXh10Rz-3" vertex="1">
          <mxGeometry x="130" y="110" width="120" height="60" as="geometry" />
        </mxCell>
        <mxCell id="h2vkKSdlR_5L6GXh10Rz-29" style="edgeStyle=orthogonalEdgeStyle;rounded=0;orthogonalLoop=1;jettySize=auto;html=1;entryX=1;entryY=0.5;entryDx=0;entryDy=0;" parent="h2vkKSdlR_5L6GXh10Rz-3" source="h2vkKSdlR_5L6GXh10Rz-7" target="h2vkKSdlR_5L6GXh10Rz-8" edge="1">
          <mxGeometry relative="1" as="geometry" />
        </mxCell>
        <mxCell id="h2vkKSdlR_5L6GXh10Rz-7" value="Diagnostic API" style="rounded=0;whiteSpace=wrap;html=1;" parent="h2vkKSdlR_5L6GXh10Rz-3" vertex="1">
          <mxGeometry x="130" y="40" width="120" height="60" as="geometry" />
        </mxCell>
        <mxCell id="h2vkKSdlR_5L6GXh10Rz-28" style="edgeStyle=orthogonalEdgeStyle;rounded=0;orthogonalLoop=1;jettySize=auto;html=1;" parent="h2vkKSdlR_5L6GXh10Rz-3" source="h2vkKSdlR_5L6GXh10Rz-8" target="h2vkKSdlR_5L6GXh10Rz-7" edge="1">
          <mxGeometry relative="1" as="geometry" />
        </mxCell>
        <mxCell id="h2vkKSdlR_5L6GXh10Rz-30" style="edgeStyle=orthogonalEdgeStyle;rounded=0;orthogonalLoop=1;jettySize=auto;html=1;entryX=0;entryY=0.5;entryDx=0;entryDy=0;" parent="h2vkKSdlR_5L6GXh10Rz-3" source="h2vkKSdlR_5L6GXh10Rz-8" target="h2vkKSdlR_5L6GXh10Rz-6" edge="1">
          <mxGeometry relative="1" as="geometry" />
        </mxCell>
        <mxCell id="h2vkKSdlR_5L6GXh10Rz-49" style="edgeStyle=orthogonalEdgeStyle;rounded=0;orthogonalLoop=1;jettySize=auto;html=1;entryX=0;entryY=0.5;entryDx=0;entryDy=0;" parent="h2vkKSdlR_5L6GXh10Rz-3" source="h2vkKSdlR_5L6GXh10Rz-8" target="h2vkKSdlR_5L6GXh10Rz-48" edge="1">
          <mxGeometry relative="1" as="geometry" />
        </mxCell>
        <mxCell id="h2vkKSdlR_5L6GXh10Rz-8" value="Client&lt;div&gt;Broker&lt;/div&gt;" style="rounded=0;whiteSpace=wrap;html=1;" parent="h2vkKSdlR_5L6GXh10Rz-3" vertex="1">
          <mxGeometry x="20" y="80" width="70" height="60" as="geometry" />
        </mxCell>
        <mxCell id="h2vkKSdlR_5L6GXh10Rz-50" style="edgeStyle=orthogonalEdgeStyle;rounded=0;orthogonalLoop=1;jettySize=auto;html=1;entryX=1;entryY=0.5;entryDx=0;entryDy=0;" parent="h2vkKSdlR_5L6GXh10Rz-3" source="h2vkKSdlR_5L6GXh10Rz-48" target="h2vkKSdlR_5L6GXh10Rz-8" edge="1">
          <mxGeometry relative="1" as="geometry" />
        </mxCell>
        <mxCell id="h2vkKSdlR_5L6GXh10Rz-48" value="Sensor API" style="rounded=0;whiteSpace=wrap;html=1;" parent="h2vkKSdlR_5L6GXh10Rz-3" vertex="1">
          <mxGeometry x="130" y="180" width="120" height="60" as="geometry" />
        </mxCell>
        <mxCell id="h2vkKSdlR_5L6GXh10Rz-4" value="Processing Pipeline" style="swimlane;whiteSpace=wrap;html=1;" parent="1" vertex="1">
          <mxGeometry x="800" y="985" width="250" height="130" as="geometry" />
        </mxCell>
        <mxCell id="h2vkKSdlR_5L6GXh10Rz-32" value="Experiment&lt;div&gt;Controller&lt;/div&gt;" style="rounded=0;whiteSpace=wrap;html=1;" parent="h2vkKSdlR_5L6GXh10Rz-4" vertex="1">
          <mxGeometry x="30" y="40" width="120" height="60" as="geometry" />
        </mxCell>
        <mxCell id="h2vkKSdlR_5L6GXh10Rz-5" value="Logging Service" style="swimlane;whiteSpace=wrap;html=1;" parent="1" vertex="1">
          <mxGeometry x="800" y="1150" width="250" height="130" as="geometry" />
        </mxCell>
        <mxCell id="h2vkKSdlR_5L6GXh10Rz-34" value="LoggingService" style="rounded=0;whiteSpace=wrap;html=1;" parent="h2vkKSdlR_5L6GXh10Rz-5" vertex="1">
          <mxGeometry x="20" y="40" width="120" height="60" as="geometry" />
        </mxCell>
        <mxCell id="h2vkKSdlR_5L6GXh10Rz-9" value="&lt;div&gt;Communication Layer&lt;/div&gt;SensorProcessorWPF" style="swimlane;whiteSpace=wrap;html=1;startSize=30;" parent="1" vertex="1">
          <mxGeometry x="140" y="930" width="280" height="230" as="geometry" />
        </mxCell>
        <mxCell id="h2vkKSdlR_5L6GXh10Rz-25" style="edgeStyle=orthogonalEdgeStyle;rounded=0;orthogonalLoop=1;jettySize=auto;html=1;entryX=1;entryY=0.5;entryDx=0;entryDy=0;" parent="h2vkKSdlR_5L6GXh10Rz-9" source="h2vkKSdlR_5L6GXh10Rz-11" target="h2vkKSdlR_5L6GXh10Rz-12" edge="1">
          <mxGeometry relative="1" as="geometry" />
        </mxCell>
        <mxCell id="h2vkKSdlR_5L6GXh10Rz-26" style="edgeStyle=orthogonalEdgeStyle;rounded=0;orthogonalLoop=1;jettySize=auto;html=1;" parent="h2vkKSdlR_5L6GXh10Rz-9" source="h2vkKSdlR_5L6GXh10Rz-11" target="h2vkKSdlR_5L6GXh10Rz-13" edge="1">
          <mxGeometry relative="1" as="geometry" />
        </mxCell>
        <mxCell id="h2vkKSdlR_5L6GXh10Rz-11" value="Service&lt;div&gt;Broker&lt;/div&gt;" style="rounded=0;whiteSpace=wrap;html=1;" parent="h2vkKSdlR_5L6GXh10Rz-9" vertex="1">
          <mxGeometry x="180" y="90" width="70" height="60" as="geometry" />
        </mxCell>
        <mxCell id="h2vkKSdlR_5L6GXh10Rz-24" style="edgeStyle=orthogonalEdgeStyle;rounded=0;orthogonalLoop=1;jettySize=auto;html=1;entryX=0;entryY=0.5;entryDx=0;entryDy=0;" parent="h2vkKSdlR_5L6GXh10Rz-9" source="h2vkKSdlR_5L6GXh10Rz-12" target="h2vkKSdlR_5L6GXh10Rz-11" edge="1">
          <mxGeometry relative="1" as="geometry" />
        </mxCell>
        <mxCell id="h2vkKSdlR_5L6GXh10Rz-12" value="Diagnostic API" style="rounded=0;whiteSpace=wrap;html=1;" parent="h2vkKSdlR_5L6GXh10Rz-9" vertex="1">
          <mxGeometry x="-30" y="50" width="120" height="60" as="geometry" />
        </mxCell>
        <mxCell id="h2vkKSdlR_5L6GXh10Rz-27" style="edgeStyle=orthogonalEdgeStyle;rounded=0;orthogonalLoop=1;jettySize=auto;html=1;entryX=0;entryY=0.5;entryDx=0;entryDy=0;" parent="h2vkKSdlR_5L6GXh10Rz-9" source="h2vkKSdlR_5L6GXh10Rz-13" target="h2vkKSdlR_5L6GXh10Rz-11" edge="1">
          <mxGeometry relative="1" as="geometry" />
        </mxCell>
        <mxCell id="h2vkKSdlR_5L6GXh10Rz-13" value="Experiment API" style="rounded=0;whiteSpace=wrap;html=1;" parent="h2vkKSdlR_5L6GXh10Rz-9" vertex="1">
          <mxGeometry x="-30" y="140" width="120" height="60" as="geometry" />
        </mxCell>
        <mxCell id="h2vkKSdlR_5L6GXh10Rz-14" style="edgeStyle=orthogonalEdgeStyle;rounded=0;orthogonalLoop=1;jettySize=auto;html=1;" parent="1" source="h2vkKSdlR_5L6GXh10Rz-11" target="h2vkKSdlR_5L6GXh10Rz-8" edge="1">
          <mxGeometry relative="1" as="geometry" />
        </mxCell>
        <mxCell id="h2vkKSdlR_5L6GXh10Rz-15" style="edgeStyle=orthogonalEdgeStyle;rounded=0;orthogonalLoop=1;jettySize=auto;html=1;entryX=1;entryY=0.5;entryDx=0;entryDy=0;" parent="1" source="h2vkKSdlR_5L6GXh10Rz-8" target="h2vkKSdlR_5L6GXh10Rz-11" edge="1">
          <mxGeometry relative="1" as="geometry" />
        </mxCell>
        <mxCell id="h2vkKSdlR_5L6GXh10Rz-16" value="ZeroMQ&lt;div&gt;Protobuf&lt;/div&gt;" style="edgeLabel;html=1;align=center;verticalAlign=middle;resizable=0;points=[];" parent="h2vkKSdlR_5L6GXh10Rz-15" vertex="1" connectable="0">
          <mxGeometry x="-0.1571" relative="1" as="geometry">
            <mxPoint x="-1" y="-20" as="offset" />
          </mxGeometry>
        </mxCell>
        <mxCell id="h2vkKSdlR_5L6GXh10Rz-20" value="" style="edgeStyle=orthogonalEdgeStyle;rounded=0;orthogonalLoop=1;jettySize=auto;html=1;" parent="1" source="h2vkKSdlR_5L6GXh10Rz-11" edge="1">
          <mxGeometry relative="1" as="geometry">
            <mxPoint x="355" y="1240" as="targetPoint" />
          </mxGeometry>
        </mxCell>
        <mxCell id="h2vkKSdlR_5L6GXh10Rz-21" value="Handle Setup/Teardown/Management&lt;div&gt;of ZeroMQ Connections&lt;/div&gt;" style="text;html=1;align=center;verticalAlign=middle;whiteSpace=wrap;rounded=0;" parent="1" vertex="1">
          <mxGeometry x="260" y="1240" width="190" height="50" as="geometry" />
        </mxCell>
        <mxCell id="h2vkKSdlR_5L6GXh10Rz-22" value="Handle Setup/Teardown/Management&lt;div&gt;of ZeroMQ Connections&lt;/div&gt;" style="text;html=1;align=center;verticalAlign=middle;whiteSpace=wrap;rounded=0;" parent="1" vertex="1">
          <mxGeometry x="470" y="1240" width="190" height="50" as="geometry" />
        </mxCell>
        <mxCell id="h2vkKSdlR_5L6GXh10Rz-23" style="edgeStyle=orthogonalEdgeStyle;rounded=0;orthogonalLoop=1;jettySize=auto;html=1;" parent="1" source="h2vkKSdlR_5L6GXh10Rz-8" target="h2vkKSdlR_5L6GXh10Rz-22" edge="1">
          <mxGeometry relative="1" as="geometry" />
        </mxCell>
        <mxCell id="h2vkKSdlR_5L6GXh10Rz-33" value="&lt;p style=&quot;margin:0px;margin-top:4px;text-align:center;&quot;&gt;&lt;b&gt;Experiment&lt;/b&gt;&lt;/p&gt;&lt;hr size=&quot;1&quot; style=&quot;border-style:solid;&quot;&gt;&lt;p style=&quot;margin:0px;margin-left:4px;&quot;&gt;- mName: std::string&lt;/p&gt;&lt;p style=&quot;margin:0px;margin-left:4px;&quot;&gt;- mId: std::string&lt;/p&gt;&lt;p style=&quot;margin:0px;margin-left:4px;&quot;&gt;- mStartTime: long long (UTC)&lt;/p&gt;&lt;p style=&quot;margin:0px;margin-left:4px;&quot;&gt;- mEndTime: long long (UTC)&lt;/p&gt;&lt;p style=&quot;margin:0px;margin-left:4px;&quot;&gt;- mDuration: long long (msec)&lt;/p&gt;&lt;p style=&quot;margin:0px;margin-left:4px;&quot;&gt;- mSystemDate: std::string&lt;/p&gt;&lt;p style=&quot;margin:0px;margin-left:4px;&quot;&gt;- mStorageLocation: std::string&lt;/p&gt;&lt;hr size=&quot;1&quot; style=&quot;border-style:solid;&quot;&gt;&lt;p style=&quot;margin:0px;margin-left:4px;&quot;&gt;+ method(): Type&lt;/p&gt;" style="verticalAlign=top;align=left;overflow=fill;html=1;whiteSpace=wrap;" parent="1" vertex="1">
          <mxGeometry x="820" y="1310" width="220" height="170" as="geometry" />
        </mxCell>
        <mxCell id="h2vkKSdlR_5L6GXh10Rz-35" value="Diagnostic Service" style="swimlane;whiteSpace=wrap;html=1;" parent="1" vertex="1">
          <mxGeometry x="800" y="840" width="250" height="130" as="geometry" />
        </mxCell>
        <mxCell id="h2vkKSdlR_5L6GXh10Rz-36" value="Diagnostic&amp;nbsp;&lt;div&gt;Service&lt;/div&gt;" style="rounded=0;whiteSpace=wrap;html=1;" parent="h2vkKSdlR_5L6GXh10Rz-35" vertex="1">
          <mxGeometry x="30" y="40" width="120" height="60" as="geometry" />
        </mxCell>
        <mxCell id="h2vkKSdlR_5L6GXh10Rz-39" value="IO Layer" style="swimlane;whiteSpace=wrap;html=1;" parent="1" vertex="1">
          <mxGeometry x="1100" y="850" width="260" height="360" as="geometry" />
        </mxCell>
        <mxCell id="vH57DDxU4aNSEHnl1czY-5" style="edgeStyle=orthogonalEdgeStyle;rounded=0;orthogonalLoop=1;jettySize=auto;html=1;entryX=0;entryY=0.5;entryDx=0;entryDy=0;" parent="h2vkKSdlR_5L6GXh10Rz-39" source="h2vkKSdlR_5L6GXh10Rz-40" target="h2vkKSdlR_5L6GXh10Rz-43" edge="1">
          <mxGeometry relative="1" as="geometry" />
        </mxCell>
        <mxCell id="h2vkKSdlR_5L6GXh10Rz-40" value="IO Interface" style="rounded=0;whiteSpace=wrap;html=1;" parent="h2vkKSdlR_5L6GXh10Rz-39" vertex="1">
          <mxGeometry x="-30" y="50" width="90" height="260" as="geometry" />
        </mxCell>
        <mxCell id="vH57DDxU4aNSEHnl1czY-6" style="edgeStyle=orthogonalEdgeStyle;rounded=0;orthogonalLoop=1;jettySize=auto;html=1;entryX=1;entryY=0.5;entryDx=0;entryDy=0;" parent="h2vkKSdlR_5L6GXh10Rz-39" source="h2vkKSdlR_5L6GXh10Rz-43" target="h2vkKSdlR_5L6GXh10Rz-40" edge="1">
          <mxGeometry relative="1" as="geometry" />
        </mxCell>
        <mxCell id="h2vkKSdlR_5L6GXh10Rz-43" value="Sensor Integrations" style="rounded=0;whiteSpace=wrap;html=1;" parent="h2vkKSdlR_5L6GXh10Rz-39" vertex="1">
          <mxGeometry x="115" y="150" width="120" height="60" as="geometry" />
        </mxCell>
        <mxCell id="h2vkKSdlR_5L6GXh10Rz-46" style="edgeStyle=orthogonalEdgeStyle;rounded=0;orthogonalLoop=1;jettySize=auto;html=1;entryX=1;entryY=0.5;entryDx=0;entryDy=0;" parent="1" source="h2vkKSdlR_5L6GXh10Rz-44" target="h2vkKSdlR_5L6GXh10Rz-43" edge="1">
          <mxGeometry relative="1" as="geometry" />
        </mxCell>
        <mxCell id="h2vkKSdlR_5L6GXh10Rz-44" value="UTC Time Sensor" style="rounded=0;whiteSpace=wrap;html=1;" parent="1" vertex="1">
          <mxGeometry x="1400" y="1000" width="120" height="60" as="geometry" />
        </mxCell>
        <mxCell id="h2vkKSdlR_5L6GXh10Rz-47" style="edgeStyle=orthogonalEdgeStyle;rounded=0;orthogonalLoop=1;jettySize=auto;html=1;entryX=0;entryY=0.5;entryDx=0;entryDy=0;" parent="1" source="h2vkKSdlR_5L6GXh10Rz-43" target="h2vkKSdlR_5L6GXh10Rz-44" edge="1">
          <mxGeometry relative="1" as="geometry" />
        </mxCell>
        <mxCell id="h2vkKSdlR_5L6GXh10Rz-51" value="&lt;p style=&quot;margin:0px;margin-top:4px;text-align:center;&quot;&gt;&lt;b&gt;Diagnostic API&lt;/b&gt;&lt;/p&gt;&lt;hr size=&quot;1&quot; style=&quot;border-style:solid;&quot;&gt;&lt;p style=&quot;margin:0px;margin-left:4px;&quot;&gt;- Reporting Liveness of Components throughout application architecture (Service, Clients, IO Device Connections)&lt;/p&gt;" style="verticalAlign=top;align=left;overflow=fill;html=1;whiteSpace=wrap;" parent="1" vertex="1">
          <mxGeometry x="510" y="1310" width="220" height="90" as="geometry" />
        </mxCell>
        <mxCell id="h2vkKSdlR_5L6GXh10Rz-52" value="&lt;p style=&quot;margin:0px;margin-top:4px;text-align:center;&quot;&gt;&lt;b&gt;Experiment API&lt;/b&gt;&lt;/p&gt;&lt;hr size=&quot;1&quot; style=&quot;border-style:solid;&quot;&gt;&lt;p style=&quot;margin:0px;margin-left:4px;&quot;&gt;- Setting up Experiment Parameters (sensorts to use, storage location/format, sampling strategies).&lt;br&gt;&lt;/p&gt;&lt;p style=&quot;margin:0px;margin-left:4px;&quot;&gt;- Discover &amp;amp; Configure Fusion Algorithms.&lt;/p&gt;&lt;p style=&quot;margin:0px;margin-left:4px;&quot;&gt;- Start/Stopping Experiment&lt;/p&gt;&lt;p style=&quot;margin:0px;margin-left:4px;&quot;&gt;- Fetching Experiment Data&lt;/p&gt;&lt;p style=&quot;margin:0px;margin-left:4px;&quot;&gt;- Experiment Replay Controls&lt;/p&gt;" style="verticalAlign=top;align=left;overflow=fill;html=1;whiteSpace=wrap;" parent="1" vertex="1">
          <mxGeometry x="510" y="1420" width="220" height="140" as="geometry" />
        </mxCell>
        <mxCell id="h2vkKSdlR_5L6GXh10Rz-54" value="&lt;p style=&quot;margin:0px;margin-top:4px;text-align:center;&quot;&gt;&lt;b&gt;Sensor API&lt;/b&gt;&lt;/p&gt;&lt;hr size=&quot;1&quot; style=&quot;border-style:solid;&quot;&gt;&lt;p style=&quot;margin:0px;margin-left:4px;&quot;&gt;- Sensor Information&lt;/p&gt;&lt;p style=&quot;margin:0px;margin-left:4px;&quot;&gt;- Enable/Disable&lt;/p&gt;&lt;p style=&quot;margin:0px;margin-left:4px;&quot;&gt;&lt;br&gt;&lt;/p&gt;" style="verticalAlign=top;align=left;overflow=fill;html=1;whiteSpace=wrap;" parent="1" vertex="1">
          <mxGeometry x="510" y="1580" width="220" height="90" as="geometry" />
        </mxCell>
        <mxCell id="vH57DDxU4aNSEHnl1czY-1" style="edgeStyle=orthogonalEdgeStyle;rounded=0;orthogonalLoop=1;jettySize=auto;html=1;entryX=1;entryY=0.5;entryDx=0;entryDy=0;" parent="1" source="h2vkKSdlR_5L6GXh10Rz-40" target="h2vkKSdlR_5L6GXh10Rz-32" edge="1">
          <mxGeometry relative="1" as="geometry" />
        </mxCell>
        <mxCell id="vH57DDxU4aNSEHnl1czY-2" style="edgeStyle=orthogonalEdgeStyle;rounded=0;orthogonalLoop=1;jettySize=auto;html=1;entryX=0;entryY=0.5;entryDx=0;entryDy=0;" parent="1" source="h2vkKSdlR_5L6GXh10Rz-32" target="h2vkKSdlR_5L6GXh10Rz-40" edge="1">
          <mxGeometry relative="1" as="geometry" />
        </mxCell>
        <mxCell id="vH57DDxU4aNSEHnl1czY-3" style="edgeStyle=orthogonalEdgeStyle;rounded=0;orthogonalLoop=1;jettySize=auto;html=1;entryX=1;entryY=0.5;entryDx=0;entryDy=0;" parent="1" source="h2vkKSdlR_5L6GXh10Rz-40" target="h2vkKSdlR_5L6GXh10Rz-36" edge="1">
          <mxGeometry relative="1" as="geometry" />
        </mxCell>
        <mxCell id="vH57DDxU4aNSEHnl1czY-4" style="edgeStyle=orthogonalEdgeStyle;rounded=0;orthogonalLoop=1;jettySize=auto;html=1;entryX=0;entryY=0.5;entryDx=0;entryDy=0;" parent="1" source="h2vkKSdlR_5L6GXh10Rz-36" target="h2vkKSdlR_5L6GXh10Rz-40" edge="1">
          <mxGeometry relative="1" as="geometry" />
        </mxCell>
      </root>
    </mxGraphModel>
  </diagram>
  <diagram id="UIBWTq_sI-04LLZBJN7o" name="UI Mocks">
    <mxGraphModel dx="1073" dy="845" grid="1" gridSize="10" guides="1" tooltips="1" connect="1" arrows="1" fold="1" page="1" pageScale="1" pageWidth="850" pageHeight="1100" math="0" shadow="0">
      <root>
        <mxCell id="0" />
        <mxCell id="1" parent="0" />
        <mxCell id="tD-2u17ngB8_XBrdabwJ-1" value="" style="rounded=0;whiteSpace=wrap;html=1;fillColor=#333333;" vertex="1" parent="1">
          <mxGeometry x="150" y="190" width="560" height="320" as="geometry" />
        </mxCell>
        <mxCell id="tD-2u17ngB8_XBrdabwJ-2" value="" style="rounded=0;whiteSpace=wrap;html=1;fillColor=#222222;strokeColor=light-dark(#222222, #3e2800);" vertex="1" parent="1">
          <mxGeometry x="150" y="190" width="50" height="320" as="geometry" />
        </mxCell>
        <mxCell id="tD-2u17ngB8_XBrdabwJ-6" value="" style="ellipse;whiteSpace=wrap;html=1;aspect=fixed;" vertex="1" parent="1">
          <mxGeometry x="161" y="201" width="28" height="28" as="geometry" />
        </mxCell>
        <mxCell id="tD-2u17ngB8_XBrdabwJ-4" value="S P" style="text;html=1;align=center;verticalAlign=middle;whiteSpace=wrap;rounded=0;" vertex="1" parent="1">
          <mxGeometry x="145" y="200" width="60" height="30" as="geometry" />
        </mxCell>
        <mxCell id="tD-2u17ngB8_XBrdabwJ-7" value="&lt;h1&gt;&lt;font style=&quot;color: rgb(255, 255, 255);&quot;&gt;Sensor&lt;/font&gt;&lt;/h1&gt;&lt;h1&gt;&lt;font style=&quot;color: rgb(255, 255, 255);&quot;&gt;Processor&lt;/font&gt;&lt;/h1&gt;" style="text;html=1;align=center;verticalAlign=middle;whiteSpace=wrap;rounded=0;fontFamily=Verdana;" vertex="1" parent="1">
          <mxGeometry x="200" y="190" width="510" height="230" as="geometry" />
        </mxCell>
        <mxCell id="tD-2u17ngB8_XBrdabwJ-9" value="" style="endArrow=none;html=1;rounded=0;entryX=0.839;entryY=0.813;entryDx=0;entryDy=0;entryPerimeter=0;strokeColor=#FFFFFF;" edge="1" parent="1">
          <mxGeometry relative="1" as="geometry">
            <mxPoint x="317.58" y="450" as="sourcePoint" />
            <mxPoint x="592.42" y="450.15999999999997" as="targetPoint" />
          </mxGeometry>
        </mxCell>
        <mxCell id="tD-2u17ngB8_XBrdabwJ-10" value="" style="endArrow=none;html=1;rounded=0;fillColor=#60a917;strokeColor=#33FF33;" edge="1" parent="1">
          <mxGeometry relative="1" as="geometry">
            <mxPoint x="317.58" y="450" as="sourcePoint" />
            <mxPoint x="470" y="450" as="targetPoint" />
          </mxGeometry>
        </mxCell>
        <mxCell id="tD-2u17ngB8_XBrdabwJ-11" value="" style="endArrow=none;html=1;rounded=0;fillColor=#60a917;strokeColor=#33FF33;" edge="1" parent="1">
          <mxGeometry relative="1" as="geometry">
            <mxPoint x="770" y="519" as="sourcePoint" />
            <mxPoint x="922.4200000000001" y="519" as="targetPoint" />
          </mxGeometry>
        </mxCell>
        <mxCell id="tD-2u17ngB8_XBrdabwJ-12" value="33FF33" style="text;html=1;align=center;verticalAlign=middle;resizable=0;points=[];autosize=1;strokeColor=none;fillColor=none;" vertex="1" parent="1">
          <mxGeometry x="770" y="487" width="60" height="30" as="geometry" />
        </mxCell>
        <mxCell id="tD-2u17ngB8_XBrdabwJ-13" value="" style="endArrow=none;html=1;rounded=0;entryX=0.839;entryY=0.813;entryDx=0;entryDy=0;entryPerimeter=0;" edge="1" parent="1">
          <mxGeometry relative="1" as="geometry">
            <mxPoint x="770" y="479" as="sourcePoint" />
            <mxPoint x="1044.84" y="479.15999999999997" as="targetPoint" />
          </mxGeometry>
        </mxCell>
        <mxCell id="tD-2u17ngB8_XBrdabwJ-14" value="FFFFFF" style="text;html=1;align=center;verticalAlign=middle;resizable=0;points=[];autosize=1;strokeColor=none;fillColor=none;" vertex="1" parent="1">
          <mxGeometry x="765" y="440" width="70" height="30" as="geometry" />
        </mxCell>
        <mxCell id="tD-2u17ngB8_XBrdabwJ-16" value="&lt;font style=&quot;color: rgb(255, 255, 255);&quot;&gt;Loading Assets...&lt;/font&gt;" style="text;html=1;align=center;verticalAlign=middle;resizable=0;points=[];autosize=1;strokeColor=none;fillColor=none;fontFamily=Verdana;" vertex="1" parent="1">
          <mxGeometry x="380" y="418" width="130" height="30" as="geometry" />
        </mxCell>
        <mxCell id="tD-2u17ngB8_XBrdabwJ-17" value="" style="rounded=0;whiteSpace=wrap;html=1;fillColor=#333333;" vertex="1" parent="1">
          <mxGeometry x="770" y="319" width="170" height="97.14" as="geometry" />
        </mxCell>
        <mxCell id="tD-2u17ngB8_XBrdabwJ-18" value="333333" style="text;html=1;align=center;verticalAlign=middle;resizable=0;points=[];autosize=1;strokeColor=none;fillColor=none;" vertex="1" parent="1">
          <mxGeometry x="770" y="290" width="60" height="30" as="geometry" />
        </mxCell>
        <mxCell id="tD-2u17ngB8_XBrdabwJ-20" value="" style="rounded=0;whiteSpace=wrap;html=1;fillColor=#222222;" vertex="1" parent="1">
          <mxGeometry x="770" y="200" width="50" height="58" as="geometry" />
        </mxCell>
        <mxCell id="tD-2u17ngB8_XBrdabwJ-21" value="222222" style="text;html=1;align=center;verticalAlign=middle;resizable=0;points=[];autosize=1;strokeColor=none;fillColor=none;" vertex="1" parent="1">
          <mxGeometry x="760" y="170" width="60" height="30" as="geometry" />
        </mxCell>
        <mxCell id="Afbs1VhR4uwAlz6h4NSO-1" value="&lt;h1&gt;Startup&lt;/h1&gt;" style="text;html=1;align=center;verticalAlign=middle;whiteSpace=wrap;rounded=0;" vertex="1" parent="1">
          <mxGeometry x="370" y="140" width="150" height="30" as="geometry" />
        </mxCell>
        <mxCell id="Afbs1VhR4uwAlz6h4NSO-2" value="" style="rounded=0;whiteSpace=wrap;html=1;fillColor=#333333;" vertex="1" parent="1">
          <mxGeometry x="148" y="760" width="560" height="320" as="geometry" />
        </mxCell>
        <mxCell id="Afbs1VhR4uwAlz6h4NSO-3" value="" style="rounded=0;whiteSpace=wrap;html=1;fillColor=#222222;strokeColor=#222222;" vertex="1" parent="1">
          <mxGeometry x="148" y="760" width="50" height="320" as="geometry" />
        </mxCell>
        <mxCell id="Afbs1VhR4uwAlz6h4NSO-4" value="" style="ellipse;whiteSpace=wrap;html=1;aspect=fixed;" vertex="1" parent="1">
          <mxGeometry x="159" y="771" width="28" height="28" as="geometry" />
        </mxCell>
        <mxCell id="Afbs1VhR4uwAlz6h4NSO-5" value="S P" style="text;html=1;align=center;verticalAlign=middle;whiteSpace=wrap;rounded=0;" vertex="1" parent="1">
          <mxGeometry x="143" y="770" width="60" height="30" as="geometry" />
        </mxCell>
        <mxCell id="Afbs1VhR4uwAlz6h4NSO-9" value="&lt;font face=&quot;Verdana&quot; style=&quot;color: rgb(255, 255, 255);&quot;&gt;Login&lt;/font&gt;" style="text;html=1;align=center;verticalAlign=middle;resizable=0;points=[];autosize=1;strokeColor=#33FF33;fillColor=none;strokeWidth=1;" vertex="1" parent="1">
          <mxGeometry x="610" y="1030" width="60" height="30" as="geometry" />
        </mxCell>
        <mxCell id="Afbs1VhR4uwAlz6h4NSO-10" value="&lt;h1&gt;Login Screen&lt;/h1&gt;" style="text;html=1;align=center;verticalAlign=middle;whiteSpace=wrap;rounded=0;" vertex="1" parent="1">
          <mxGeometry x="323" y="720" width="260" height="30" as="geometry" />
        </mxCell>
        <mxCell id="Afbs1VhR4uwAlz6h4NSO-11" value="" style="ellipse;whiteSpace=wrap;html=1;aspect=fixed;" vertex="1" parent="1">
          <mxGeometry x="395" y="790" width="120" height="120" as="geometry" />
        </mxCell>
        <mxCell id="Afbs1VhR4uwAlz6h4NSO-12" value="" style="shape=actor;whiteSpace=wrap;html=1;fillColor=#1ba1e2;fontColor=#ffffff;strokeColor=#006EAF;" vertex="1" parent="1">
          <mxGeometry x="435" y="820" width="40" height="60" as="geometry" />
        </mxCell>
        <mxCell id="Afbs1VhR4uwAlz6h4NSO-13" value="" style="shape=actor;whiteSpace=wrap;html=1;fillColor=#1ba1e2;fontColor=#ffffff;strokeColor=#006EAF;" vertex="1" parent="1">
          <mxGeometry x="775" y="790" width="40" height="60" as="geometry" />
        </mxCell>
        <mxCell id="Afbs1VhR4uwAlz6h4NSO-14" value="1BA1E2" style="text;html=1;align=center;verticalAlign=middle;resizable=0;points=[];autosize=1;strokeColor=none;fillColor=none;" vertex="1" parent="1">
          <mxGeometry x="815" y="810" width="70" height="30" as="geometry" />
        </mxCell>
        <mxCell id="Afbs1VhR4uwAlz6h4NSO-16" value="&lt;font style=&quot;color: rgb(255, 255, 255);&quot;&gt;Username:&lt;/font&gt;" style="text;html=1;align=center;verticalAlign=middle;resizable=0;points=[];autosize=1;strokeColor=none;fillColor=none;fontFamily=Verdana;" vertex="1" parent="1">
          <mxGeometry x="321.25" y="920" width="90" height="30" as="geometry" />
        </mxCell>
        <mxCell id="Afbs1VhR4uwAlz6h4NSO-17" value="&lt;font style=&quot;color: rgb(255, 255, 255);&quot;&gt;Password:&lt;/font&gt;" style="text;html=1;align=center;verticalAlign=middle;resizable=0;points=[];autosize=1;strokeColor=none;fillColor=none;fontFamily=Verdana;" vertex="1" parent="1">
          <mxGeometry x="323.25" y="950" width="90" height="30" as="geometry" />
        </mxCell>
        <mxCell id="Afbs1VhR4uwAlz6h4NSO-18" value="&lt;p&gt;&lt;font face=&quot;Verdana&quot;&gt;Username&lt;/font&gt;&lt;/p&gt;" style="rounded=0;whiteSpace=wrap;html=1;" vertex="1" parent="1">
          <mxGeometry x="417.75" y="926" width="151" height="18" as="geometry" />
        </mxCell>
        <mxCell id="Afbs1VhR4uwAlz6h4NSO-19" value="&lt;font face=&quot;Verdana&quot;&gt;Password $!&amp;nbsp;&lt;/font&gt;" style="rounded=0;whiteSpace=wrap;html=1;" vertex="1" parent="1">
          <mxGeometry x="416.75" y="956" width="152" height="18" as="geometry" />
        </mxCell>
        <mxCell id="Afbs1VhR4uwAlz6h4NSO-36" value="" style="rounded=0;whiteSpace=wrap;html=1;fillColor=#333333;" vertex="1" parent="1">
          <mxGeometry x="150" y="1220" width="560" height="320" as="geometry" />
        </mxCell>
        <mxCell id="Afbs1VhR4uwAlz6h4NSO-37" value="" style="rounded=0;whiteSpace=wrap;html=1;fillColor=#222222;strokeColor=#222222;" vertex="1" parent="1">
          <mxGeometry x="150" y="1220" width="50" height="320" as="geometry" />
        </mxCell>
        <mxCell id="Afbs1VhR4uwAlz6h4NSO-38" value="" style="ellipse;whiteSpace=wrap;html=1;aspect=fixed;" vertex="1" parent="1">
          <mxGeometry x="161" y="1231" width="28" height="28" as="geometry" />
        </mxCell>
        <mxCell id="Afbs1VhR4uwAlz6h4NSO-39" value="S P" style="text;html=1;align=center;verticalAlign=middle;whiteSpace=wrap;rounded=0;" vertex="1" parent="1">
          <mxGeometry x="145" y="1230" width="60" height="30" as="geometry" />
        </mxCell>
        <mxCell id="Afbs1VhR4uwAlz6h4NSO-41" value="&lt;h1&gt;Home Screen&lt;/h1&gt;" style="text;html=1;align=center;verticalAlign=middle;whiteSpace=wrap;rounded=0;" vertex="1" parent="1">
          <mxGeometry x="325" y="1180" width="260" height="30" as="geometry" />
        </mxCell>
        <mxCell id="Afbs1VhR4uwAlz6h4NSO-48" value="" style="shape=actor;whiteSpace=wrap;html=1;fillColor=#1ba1e2;fontColor=#ffffff;strokeColor=#006EAF;" vertex="1" parent="1">
          <mxGeometry x="672" y="1230" width="19.33" height="29" as="geometry" />
        </mxCell>
        <mxCell id="Afbs1VhR4uwAlz6h4NSO-49" value="&lt;font style=&quot;color: rgb(255, 255, 255);&quot;&gt;Username:&lt;/font&gt;" style="text;html=1;align=center;verticalAlign=middle;resizable=0;points=[];autosize=1;strokeColor=none;fillColor=none;fontFamily=Verdana;" vertex="1" parent="1">
          <mxGeometry x="360" y="974" width="90" height="30" as="geometry" />
        </mxCell>
        <mxCell id="Afbs1VhR4uwAlz6h4NSO-50" value="&lt;font style=&quot;color: rgb(255, 255, 255);&quot;&gt;Username&lt;/font&gt;" style="text;html=1;align=center;verticalAlign=middle;resizable=0;points=[];autosize=1;strokeColor=none;fillColor=none;fontFamily=Verdana;" vertex="1" parent="1">
          <mxGeometry x="585" y="1231" width="80" height="30" as="geometry" />
        </mxCell>
        <mxCell id="Afbs1VhR4uwAlz6h4NSO-51" value="&lt;font style=&quot;color: rgb(255, 255, 255);&quot;&gt;H&lt;/font&gt;" style="text;html=1;align=center;verticalAlign=middle;resizable=0;points=[];autosize=1;strokeColor=#1BA1E2;fillColor=none;" vertex="1" parent="1">
          <mxGeometry x="160" y="1280" width="30" height="30" as="geometry" />
        </mxCell>
        <mxCell id="Afbs1VhR4uwAlz6h4NSO-52" value="&lt;font style=&quot;color: rgb(255, 255, 255);&quot;&gt;Home&lt;/font&gt;" style="text;html=1;align=center;verticalAlign=middle;resizable=0;points=[];autosize=1;strokeColor=#1BA1E2;fillColor=#222222;" vertex="1" parent="1">
          <mxGeometry x="752" y="1270" width="60" height="30" as="geometry" />
        </mxCell>
        <mxCell id="Afbs1VhR4uwAlz6h4NSO-54" value="&lt;font style=&quot;color: rgb(255, 255, 255);&quot;&gt;S&lt;/font&gt;" style="text;html=1;align=center;verticalAlign=middle;resizable=0;points=[];autosize=1;strokeColor=#FFFFFF;fillColor=#222222;" vertex="1" parent="1">
          <mxGeometry x="160" y="1500" width="30" height="30" as="geometry" />
        </mxCell>
        <mxCell id="Afbs1VhR4uwAlz6h4NSO-55" value="&lt;font color=&quot;#ffffff&quot;&gt;E&lt;/font&gt;" style="text;html=1;align=center;verticalAlign=middle;resizable=0;points=[];autosize=1;strokeColor=#FFFFFF;fillColor=#222222;" vertex="1" parent="1">
          <mxGeometry x="160" y="1320" width="30" height="30" as="geometry" />
        </mxCell>
        <mxCell id="Afbs1VhR4uwAlz6h4NSO-57" value="&lt;font color=&quot;#ffffff&quot;&gt;Experiments&lt;/font&gt;" style="text;html=1;align=center;verticalAlign=middle;resizable=0;points=[];autosize=1;strokeColor=#1BA1E2;fillColor=#222222;" vertex="1" parent="1">
          <mxGeometry x="747" y="1320" width="90" height="30" as="geometry" />
        </mxCell>
        <mxCell id="Afbs1VhR4uwAlz6h4NSO-58" value="&lt;font color=&quot;#ffffff&quot;&gt;Live View&lt;/font&gt;" style="text;html=1;align=center;verticalAlign=middle;resizable=0;points=[];autosize=1;strokeColor=#1BA1E2;fillColor=#222222;" vertex="1" parent="1">
          <mxGeometry x="747" y="1370" width="70" height="30" as="geometry" />
        </mxCell>
        <mxCell id="Afbs1VhR4uwAlz6h4NSO-59" value="&lt;p&gt;&lt;font style=&quot;color: rgb(255, 255, 255); font-size: 14px;&quot; face=&quot;Verdana&quot;&gt;Recent Experiments&lt;/font&gt;&lt;/p&gt;" style="text;html=1;align=center;verticalAlign=middle;whiteSpace=wrap;rounded=0;" vertex="1" parent="1">
          <mxGeometry x="221" y="1410" width="150" height="30" as="geometry" />
        </mxCell>
        <mxCell id="Afbs1VhR4uwAlz6h4NSO-60" value="" style="rounded=0;whiteSpace=wrap;html=1;fillColor=#444444;strokeColor=#FFFFFF;" vertex="1" parent="1">
          <mxGeometry x="221" y="1449" width="478" height="30" as="geometry" />
        </mxCell>
        <mxCell id="Afbs1VhR4uwAlz6h4NSO-62" value="&lt;font style=&quot;color: rgb(255, 255, 255);&quot;&gt;Name&lt;/font&gt;" style="text;html=1;align=center;verticalAlign=middle;resizable=0;points=[];autosize=1;strokeColor=none;fillColor=none;fontFamily=Verdana;" vertex="1" parent="1">
          <mxGeometry x="236" y="1449" width="60" height="30" as="geometry" />
        </mxCell>
        <mxCell id="Afbs1VhR4uwAlz6h4NSO-63" value="&lt;font style=&quot;color: rgb(255, 255, 255);&quot;&gt;Run Date&lt;/font&gt;" style="text;html=1;align=center;verticalAlign=middle;resizable=0;points=[];autosize=1;strokeColor=none;fillColor=none;fontFamily=Verdana;" vertex="1" parent="1">
          <mxGeometry x="344.25" y="1449" width="80" height="30" as="geometry" />
        </mxCell>
        <mxCell id="Afbs1VhR4uwAlz6h4NSO-64" value="&lt;font style=&quot;color: rgb(255, 255, 255);&quot;&gt;Controls&lt;/font&gt;" style="text;html=1;align=center;verticalAlign=middle;resizable=0;points=[];autosize=1;strokeColor=none;fillColor=none;fontFamily=Verdana;" vertex="1" parent="1">
          <mxGeometry x="624" y="1449" width="70" height="30" as="geometry" />
        </mxCell>
        <mxCell id="Afbs1VhR4uwAlz6h4NSO-65" value="&lt;font style=&quot;color: rgb(255, 255, 255);&quot;&gt;Owner&lt;/font&gt;" style="text;html=1;align=center;verticalAlign=middle;resizable=0;points=[];autosize=1;strokeColor=none;fillColor=none;fontFamily=Verdana;" vertex="1" parent="1">
          <mxGeometry x="464.25" y="1449" width="60" height="30" as="geometry" />
        </mxCell>
        <mxCell id="Afbs1VhR4uwAlz6h4NSO-66" value="&lt;font style=&quot;color: rgb(255, 255, 255);&quot;&gt;Settingss&lt;/font&gt;" style="text;html=1;align=center;verticalAlign=middle;resizable=0;points=[];autosize=1;strokeColor=#FFFFFF;fillColor=#222222;" vertex="1" parent="1">
          <mxGeometry x="747" y="1505" width="70" height="30" as="geometry" />
        </mxCell>
        <mxCell id="Afbs1VhR4uwAlz6h4NSO-67" value="&lt;font color=&quot;#ffffff&quot;&gt;L&lt;/font&gt;" style="text;html=1;align=center;verticalAlign=middle;resizable=0;points=[];autosize=1;strokeColor=#FFFFFF;fillColor=#222222;" vertex="1" parent="1">
          <mxGeometry x="160" y="1360" width="30" height="30" as="geometry" />
        </mxCell>
        <mxCell id="Afbs1VhR4uwAlz6h4NSO-68" value="" style="rounded=0;whiteSpace=wrap;html=1;fillColor=#333333;" vertex="1" parent="1">
          <mxGeometry x="148" y="1690" width="560" height="320" as="geometry" />
        </mxCell>
        <mxCell id="Afbs1VhR4uwAlz6h4NSO-69" value="" style="rounded=0;whiteSpace=wrap;html=1;fillColor=#222222;strokeColor=#222222;" vertex="1" parent="1">
          <mxGeometry x="148" y="1690" width="50" height="320" as="geometry" />
        </mxCell>
        <mxCell id="Afbs1VhR4uwAlz6h4NSO-70" value="" style="ellipse;whiteSpace=wrap;html=1;aspect=fixed;" vertex="1" parent="1">
          <mxGeometry x="159" y="1701" width="28" height="28" as="geometry" />
        </mxCell>
        <mxCell id="Afbs1VhR4uwAlz6h4NSO-71" value="S P" style="text;html=1;align=center;verticalAlign=middle;whiteSpace=wrap;rounded=0;" vertex="1" parent="1">
          <mxGeometry x="143" y="1700" width="60" height="30" as="geometry" />
        </mxCell>
        <mxCell id="Afbs1VhR4uwAlz6h4NSO-72" value="&lt;h1&gt;Live View&lt;/h1&gt;" style="text;html=1;align=center;verticalAlign=middle;whiteSpace=wrap;rounded=0;" vertex="1" parent="1">
          <mxGeometry x="323" y="1650" width="260" height="30" as="geometry" />
        </mxCell>
        <mxCell id="Afbs1VhR4uwAlz6h4NSO-73" value="" style="shape=actor;whiteSpace=wrap;html=1;fillColor=#1ba1e2;fontColor=#ffffff;strokeColor=#006EAF;" vertex="1" parent="1">
          <mxGeometry x="670" y="1700" width="19.33" height="29" as="geometry" />
        </mxCell>
        <mxCell id="Afbs1VhR4uwAlz6h4NSO-74" value="&lt;font style=&quot;color: rgb(255, 255, 255);&quot;&gt;Username&lt;/font&gt;" style="text;html=1;align=center;verticalAlign=middle;resizable=0;points=[];autosize=1;strokeColor=none;fillColor=none;fontFamily=Verdana;" vertex="1" parent="1">
          <mxGeometry x="583" y="1701" width="80" height="30" as="geometry" />
        </mxCell>
        <mxCell id="Afbs1VhR4uwAlz6h4NSO-75" value="&lt;font style=&quot;color: rgb(255, 255, 255);&quot;&gt;H&lt;/font&gt;" style="text;html=1;align=center;verticalAlign=middle;resizable=0;points=[];autosize=1;strokeColor=#1BA1E2;fillColor=none;" vertex="1" parent="1">
          <mxGeometry x="158" y="1750" width="30" height="30" as="geometry" />
        </mxCell>
        <mxCell id="Afbs1VhR4uwAlz6h4NSO-76" value="&lt;font style=&quot;color: rgb(255, 255, 255);&quot;&gt;S&lt;/font&gt;" style="text;html=1;align=center;verticalAlign=middle;resizable=0;points=[];autosize=1;strokeColor=#FFFFFF;fillColor=#222222;" vertex="1" parent="1">
          <mxGeometry x="158" y="1970" width="30" height="30" as="geometry" />
        </mxCell>
        <mxCell id="Afbs1VhR4uwAlz6h4NSO-77" value="&lt;font color=&quot;#ffffff&quot;&gt;E&lt;/font&gt;" style="text;html=1;align=center;verticalAlign=middle;resizable=0;points=[];autosize=1;strokeColor=#FFFFFF;fillColor=#222222;" vertex="1" parent="1">
          <mxGeometry x="158" y="1790" width="30" height="30" as="geometry" />
        </mxCell>
        <mxCell id="Afbs1VhR4uwAlz6h4NSO-78" value="&lt;p&gt;&lt;font style=&quot;color: rgb(255, 255, 255); font-size: 14px;&quot; face=&quot;Verdana&quot;&gt;Live View&lt;/font&gt;&lt;/p&gt;" style="text;html=1;align=center;verticalAlign=middle;whiteSpace=wrap;rounded=0;" vertex="1" parent="1">
          <mxGeometry x="206" y="1701" width="150" height="30" as="geometry" />
        </mxCell>
        <mxCell id="Afbs1VhR4uwAlz6h4NSO-84" value="&lt;font color=&quot;#ffffff&quot;&gt;L&lt;/font&gt;" style="text;html=1;align=center;verticalAlign=middle;resizable=0;points=[];autosize=1;strokeColor=#FFFFFF;fillColor=#222222;" vertex="1" parent="1">
          <mxGeometry x="158" y="1830" width="30" height="30" as="geometry" />
        </mxCell>
        <mxCell id="Afbs1VhR4uwAlz6h4NSO-85" value="" style="rounded=0;whiteSpace=wrap;html=1;" vertex="1" parent="1">
          <mxGeometry x="221" y="1761" width="380" height="229" as="geometry" />
        </mxCell>
        <mxCell id="Afbs1VhR4uwAlz6h4NSO-87" value="" style="endArrow=none;html=1;rounded=0;exitX=0;exitY=0.5;exitDx=0;exitDy=0;entryX=1;entryY=0.5;entryDx=0;entryDy=0;" edge="1" parent="1" source="Afbs1VhR4uwAlz6h4NSO-85" target="Afbs1VhR4uwAlz6h4NSO-85">
          <mxGeometry width="50" height="50" relative="1" as="geometry">
            <mxPoint x="461" y="1840" as="sourcePoint" />
            <mxPoint x="511" y="1790" as="targetPoint" />
          </mxGeometry>
        </mxCell>
        <mxCell id="Afbs1VhR4uwAlz6h4NSO-88" value="" style="endArrow=classic;html=1;rounded=0;exitX=0;exitY=0.5;exitDx=0;exitDy=0;edgeStyle=isometricEdgeStyle;curved=1;" edge="1" parent="1" source="Afbs1VhR4uwAlz6h4NSO-85">
          <mxGeometry width="50" height="50" relative="1" as="geometry">
            <mxPoint x="461" y="1840" as="sourcePoint" />
            <mxPoint x="541" y="1860" as="targetPoint" />
            <Array as="points">
              <mxPoint x="491" y="1830" />
            </Array>
          </mxGeometry>
        </mxCell>
        <mxCell id="Afbs1VhR4uwAlz6h4NSO-90" value="&lt;font style=&quot;color: rgb(255, 255, 255);&quot;&gt;Sensors&lt;/font&gt;" style="rounded=0;whiteSpace=wrap;html=1;fillColor=#222222;strokeColor=#222222;" vertex="1" parent="1">
          <mxGeometry x="611" y="1760" width="90" height="20" as="geometry" />
        </mxCell>
        <mxCell id="Afbs1VhR4uwAlz6h4NSO-93" value="&lt;font style=&quot;color: rgb(255, 255, 255);&quot;&gt;Sensor 1&lt;/font&gt;" style="text;html=1;align=center;verticalAlign=middle;resizable=0;points=[];autosize=1;strokeColor=none;fillColor=none;fontFamily=Verdana;" vertex="1" parent="1">
          <mxGeometry x="616" y="1790" width="80" height="30" as="geometry" />
        </mxCell>
        <mxCell id="Afbs1VhR4uwAlz6h4NSO-94" value="&lt;font style=&quot;color: rgb(255, 255, 255);&quot;&gt;Sensor 2&lt;/font&gt;" style="text;html=1;align=center;verticalAlign=middle;resizable=0;points=[];autosize=1;strokeColor=none;fillColor=none;fontFamily=Verdana;" vertex="1" parent="1">
          <mxGeometry x="616" y="1820" width="80" height="30" as="geometry" />
        </mxCell>
        <mxCell id="Afbs1VhR4uwAlz6h4NSO-95" value="&lt;font style=&quot;color: rgb(255, 255, 255);&quot;&gt;...&lt;/font&gt;" style="text;html=1;align=center;verticalAlign=middle;resizable=0;points=[];autosize=1;strokeColor=none;fillColor=none;fontFamily=Verdana;" vertex="1" parent="1">
          <mxGeometry x="634" y="1850" width="40" height="30" as="geometry" />
        </mxCell>
        <mxCell id="Afbs1VhR4uwAlz6h4NSO-96" value="&lt;font style=&quot;color: rgb(255, 255, 255);&quot;&gt;Pipelines&lt;/font&gt;" style="rounded=0;whiteSpace=wrap;html=1;fillColor=#222222;strokeColor=#222222;" vertex="1" parent="1">
          <mxGeometry x="611" y="1890" width="90" height="20" as="geometry" />
        </mxCell>
        <mxCell id="Afbs1VhR4uwAlz6h4NSO-97" value="&lt;font style=&quot;color: rgb(255, 255, 255);&quot;&gt;Addition&lt;/font&gt;" style="text;html=1;align=center;verticalAlign=middle;resizable=0;points=[];autosize=1;strokeColor=none;fillColor=none;fontFamily=Verdana;" vertex="1" parent="1">
          <mxGeometry x="624" y="1920" width="70" height="30" as="geometry" />
        </mxCell>
        <mxCell id="Afbs1VhR4uwAlz6h4NSO-98" value="&lt;font style=&quot;color: rgb(255, 255, 255);&quot;&gt;Distance&lt;/font&gt;" style="text;html=1;align=center;verticalAlign=middle;resizable=0;points=[];autosize=1;strokeColor=none;fillColor=none;fontFamily=Verdana;" vertex="1" parent="1">
          <mxGeometry x="619" y="1940" width="80" height="30" as="geometry" />
        </mxCell>
        <mxCell id="Afbs1VhR4uwAlz6h4NSO-99" value="&lt;font color=&quot;#ffffff&quot;&gt;Integral&lt;/font&gt;" style="text;html=1;align=center;verticalAlign=middle;resizable=0;points=[];autosize=1;strokeColor=none;fillColor=none;fontFamily=Verdana;" vertex="1" parent="1">
          <mxGeometry x="624" y="1960" width="70" height="30" as="geometry" />
        </mxCell>
        <mxCell id="Afbs1VhR4uwAlz6h4NSO-100" value="&lt;p&gt;&lt;font style=&quot;color: rgb(255, 255, 255); font-size: 14px;&quot; face=&quot;Verdana&quot;&gt;Server&lt;/font&gt;&lt;/p&gt;" style="text;html=1;align=center;verticalAlign=middle;whiteSpace=wrap;rounded=0;" vertex="1" parent="1">
          <mxGeometry x="221" y="1261" width="65" height="30" as="geometry" />
        </mxCell>
        <mxCell id="Afbs1VhR4uwAlz6h4NSO-103" value="&lt;font style=&quot;color: rgb(255, 255, 255);&quot;&gt;Connected To: Cluser-A1043&lt;/font&gt;" style="text;html=1;align=center;verticalAlign=middle;resizable=0;points=[];autosize=1;strokeColor=none;fillColor=none;fontFamily=Verdana;" vertex="1" parent="1">
          <mxGeometry x="211.25" y="1291" width="200" height="30" as="geometry" />
        </mxCell>
        <mxCell id="Afbs1VhR4uwAlz6h4NSO-104" value="&lt;font style=&quot;color: rgb(255, 255, 255);&quot;&gt;Utilization:&amp;nbsp;&lt;/font&gt;" style="text;html=1;align=center;verticalAlign=middle;resizable=0;points=[];autosize=1;strokeColor=none;fillColor=none;fontFamily=Verdana;" vertex="1" parent="1">
          <mxGeometry x="223.25" y="1320" width="90" height="30" as="geometry" />
        </mxCell>
        <mxCell id="Afbs1VhR4uwAlz6h4NSO-105" value="&lt;font style=&quot;color: rgb(255, 255, 255);&quot;&gt;X% CPU&lt;/font&gt;" style="text;html=1;align=center;verticalAlign=middle;resizable=0;points=[];autosize=1;strokeColor=none;fillColor=none;fontFamily=Verdana;" vertex="1" parent="1">
          <mxGeometry x="315" y="1321" width="70" height="30" as="geometry" />
        </mxCell>
        <mxCell id="Afbs1VhR4uwAlz6h4NSO-106" value="&lt;font style=&quot;color: rgb(255, 255, 255);&quot;&gt;X% GPU&lt;/font&gt;" style="text;html=1;align=center;verticalAlign=middle;resizable=0;points=[];autosize=1;strokeColor=none;fillColor=none;fontFamily=Verdana;" vertex="1" parent="1">
          <mxGeometry x="315" y="1351" width="70" height="30" as="geometry" />
        </mxCell>
        <mxCell id="Afbs1VhR4uwAlz6h4NSO-107" value="&lt;font style=&quot;color: rgb(255, 255, 255);&quot;&gt;1.43 TB / 20.22 TB&lt;/font&gt;" style="text;html=1;align=center;verticalAlign=middle;resizable=0;points=[];autosize=1;strokeColor=none;fillColor=none;fontFamily=Verdana;" vertex="1" parent="1">
          <mxGeometry x="315" y="1380" width="140" height="30" as="geometry" />
        </mxCell>
      </root>
    </mxGraphModel>
  </diagram>
</mxfile>
